<svg width="11" height="10" viewBox="0 0 11 10" fill="none" xmlns="http://www.w3.org/2000/svg">
<path d="M0.5 4.70002L5.42907 8.43556" stroke="white" stroke-linecap="round"/>
<path d="M10.1045 4.67561L5.42891 8.43578" stroke="white" stroke-linecap="round"/>
<path d="M5.4668 5.93391C5.48344 5.93376 5.50001 5.93376 5.5166 5.93196C5.53538 5.9299 5.55383 5.92634 5.57227 5.92219C5.58365 5.91962 5.59521 5.91776 5.60645 5.91438C5.62966 5.90741 5.65172 5.89736 5.67383 5.88703C5.68094 5.88369 5.68832 5.88097 5.69531 5.87727C5.71509 5.86686 5.73354 5.85429 5.75195 5.84114C5.75954 5.8357 5.76803 5.83143 5.77539 5.82551L10.4512 2.06574C10.6663 1.89274 10.7002 1.5778 10.5273 1.36262C10.3543 1.14743 10.0394 1.11339 9.82422 1.28645L5.45215 4.80207L0.835938 1.30207C0.615975 1.13537 0.301624 1.178 0.134766 1.39778C-0.0319281 1.61773 0.0107202 1.93208 0.230469 2.09895L5.16016 5.8343C5.16791 5.84017 5.17659 5.84457 5.18457 5.84992C5.19792 5.85888 5.21059 5.86874 5.22461 5.87629L5.24609 5.88703C5.25684 5.89219 5.26832 5.8954 5.2793 5.89973C5.29509 5.90594 5.31088 5.91178 5.32715 5.91633C5.34132 5.9203 5.35574 5.92243 5.37012 5.92512C5.38736 5.92835 5.4044 5.93249 5.42188 5.93391C5.43686 5.93511 5.45181 5.93406 5.4668 5.93391Z" fill="white" fill-opacity="0.4"/>
</svg>
