<svg width="11" height="10" viewBox="0 0 11 10" fill="none" xmlns="http://www.w3.org/2000/svg">
<path d="M0.5 4.70002L5.42907 8.43556" stroke="white" stroke-linecap="round"/>
<path d="M10.1045 4.67561L5.42891 8.43578" stroke="white" stroke-linecap="round"/>
<path d="M5.47363 5.9344C5.48797 5.93408 5.5023 5.934 5.5166 5.93244C5.53276 5.93068 5.54854 5.92697 5.56445 5.92365C5.58021 5.92037 5.59585 5.91678 5.61133 5.91194C5.62671 5.90715 5.64134 5.90063 5.65625 5.89436C5.67069 5.88824 5.68524 5.88239 5.69922 5.87483C5.7193 5.86402 5.7382 5.85137 5.75684 5.83772C5.76283 5.83331 5.76954 5.82973 5.77539 5.82502L5.78516 5.81721C5.78798 5.81482 5.79116 5.81284 5.79395 5.81037L10.4512 2.06526C10.6664 1.8922 10.7004 1.57732 10.5273 1.36213C10.3543 1.14703 10.0394 1.11293 9.82422 1.28596L5.45215 4.80158L0.835938 1.30158C0.615919 1.13484 0.301592 1.17835 0.134766 1.39826C-0.0317516 1.61827 0.011613 1.9317 0.231445 2.09846L5.16016 5.83381C5.17249 5.84316 5.18634 5.85019 5.19922 5.85822C5.20984 5.86484 5.21945 5.87298 5.23047 5.87873C5.24888 5.88838 5.26798 5.89598 5.28711 5.90315C5.30007 5.90799 5.3129 5.91308 5.32617 5.91682C5.34485 5.92209 5.36382 5.92549 5.38281 5.92854C5.39387 5.93032 5.40487 5.93238 5.41602 5.93342C5.43522 5.93519 5.45442 5.93484 5.47363 5.9344Z" fill="#2A4330"/>
</svg>
